<?xml version="1.0" encoding="UTF-8"?>
<svg version="1.1" xmlns="http://www.w3.org/2000/svg" width="735" height="731">
<path d="M0 0 C1.83103681 1.66252106 3.64985093 3.33865592 5.453125 5.03125 C7.61630502 7.05658031 9.83137611 8.98187546 12.09375 10.89453125 C23.8981466 21.16872829 23.8981466 21.16872829 25.25 28.4609375 C25.44800903 33.46891591 24.79735405 36.93223217 22.30078125 41.3046875 C21.4811792 42.74557739 21.4811792 42.74557739 20.64501953 44.21557617 C17.83905129 48.97294358 14.98948731 53.70126481 12.09802246 58.40716553 C5.64454903 68.91741391 -0.68229801 79.49695571 -6.90625 90.14453125 C-7.61377386 91.35234006 -8.32137424 92.56010405 -9.02905273 93.76782227 C-12.3805079 99.49237384 -15.71025374 105.22852786 -19.0078125 110.984375 C-19.9035498 112.53439209 -19.9035498 112.53439209 -20.81738281 114.11572266 C-21.93280026 116.04625285 -23.03941144 117.98190691 -24.13574219 119.92333984 C-24.62461914 120.76590332 -25.11349609 121.6084668 -25.6171875 122.4765625 C-26.03790527 123.21366455 -26.45862305 123.9507666 -26.89208984 124.71020508 C-27.3092627 125.22478271 -27.72643555 125.73936035 -28.15625 126.26953125 C-29.14625 126.26953125 -30.13625 126.26953125 -31.15625 126.26953125 C-32.81112671 123.73407794 -34.27642568 121.23524435 -35.71875 118.58203125 C-55.37802546 83.88472887 -86.00374101 60.9992185 -124.15625 50.26953125 C-129.11186828 49.00456428 -134.10340864 48.05805206 -139.15625 47.26953125 C-139.91035156 47.13933594 -140.66445313 47.00914062 -141.44140625 46.875 C-175.28808186 41.98386191 -209.9703927 53.53932712 -237.15625 73.26953125 C-238.02378906 73.89214844 -238.89132812 74.51476562 -239.78515625 75.15625 C-258.56825517 89.42150305 -272.64954222 107.78357038 -282.15625 129.26953125 C-282.63707031 130.34460938 -283.11789062 131.4196875 -283.61328125 132.52734375 C-290.50388275 149.13973045 -292.30386602 166.3054012 -292.31446838 184.11340332 C-292.31903826 185.73723074 -292.32403891 187.36105699 -292.32943195 188.98488188 C-292.34297397 193.43622146 -292.35041998 197.88755344 -292.35685861 202.3389082 C-292.36487989 207.14318416 -292.37857171 211.94744438 -292.39157104 216.75170898 C-292.4133093 225.07185878 -292.43146347 233.39201019 -292.44717598 241.71217346 C-292.46989877 253.74169947 -292.49803825 265.77120802 -292.52749526 277.8007192 C-292.57514164 297.3183103 -292.61841382 316.83590853 -292.65893555 336.35351562 C-292.69830551 355.31185461 -292.73973533 374.27018726 -292.78393555 393.22851562 C-292.78665982 394.3973161 -292.78938409 395.56611658 -292.79219092 396.77033526 C-292.80587064 402.63392619 -292.81959087 408.49751703 -292.83333123 414.36110783 C-292.9472496 462.99723651 -293.05326343 511.63337794 -293.15625 560.26953125 C-327.14625 560.26953125 -361.13625 560.26953125 -396.15625 560.26953125 C-396.46468104 499.19069475 -396.46468104 499.19069475 -396.56347656 477.59228516 C-396.56813615 476.5744959 -396.56813615 476.5744959 -396.57288986 475.53614524 C-397.36960178 301.32515303 -397.36960178 301.32515303 -396.94606489 227.56061387 C-396.9141474 222.41176437 -396.88919937 217.26291428 -396.86721802 212.11401367 C-396.83775073 205.34122072 -396.79150549 198.56874917 -396.73256874 191.79613876 C-396.71353471 189.42038998 -396.69873517 187.04460182 -396.68904686 184.66879654 C-396.6020099 165.43439613 -395.17753216 146.34093735 -390.40625 127.64453125 C-390.14803467 126.61078369 -389.88981934 125.57703613 -389.6237793 124.51196289 C-379.79034533 86.10590947 -361.67095792 51.72745755 -335.15625 22.26953125 C-334.65061523 21.70218262 -334.14498047 21.13483398 -333.62402344 20.55029297 C-295.27527807 -22.38812764 -241.9148908 -48.23645466 -185.15625 -55.73046875 C-184.40021484 -55.83359375 -183.64417969 -55.93671875 -182.86523438 -56.04296875 C-118.27676794 -63.7255391 -48.9149715 -43.00337258 0 0 Z " fill="#EB4E23" transform="translate(517.15625,125.73046875)"/>
<path d="M0 0 C13.95139238 13.95139238 17.73211831 49.79582752 20 69 C20.0942627 69.79390137 20.18852539 70.58780273 20.28564453 71.40576172 C21.16605672 79.79881459 21.24330233 88.19513036 21.25 96.625 C21.25067474 97.3932309 21.25134949 98.16146179 21.25204468 98.95297241 C21.16242175 163.62638594 -4.73043963 222.64003697 -50.0625 268.3125 C-56.07713244 274.28201036 -62.23615652 279.88014626 -69 285 C-69.53882813 285.41523926 -70.07765625 285.83047852 -70.6328125 286.25830078 C-85.39055234 297.60372689 -101.13882629 307.12581072 -118 315 C-118.6305127 315.2985791 -119.26102539 315.5971582 -119.91064453 315.90478516 C-135.60119235 323.28171451 -151.84949301 328.49059866 -168.75 332.3125 C-170.34485229 332.67613647 -170.34485229 332.67613647 -171.97192383 333.04711914 C-187.13065863 336.32127632 -202.03115524 337.35280023 -217.50048828 337.31567383 C-220.23380696 337.31251869 -222.96603291 337.3360708 -225.69921875 337.36132812 C-242.62364685 337.42298153 -259.13037683 335.34921149 -275.5625 331.25 C-277.11964722 330.86702759 -277.11964722 330.86702759 -278.70825195 330.47631836 C-318.79948118 320.31774639 -318.79948118 320.31774639 -325.94882774 308.41900635 C-327.91802456 303.8873993 -327.6505003 299.31129811 -327.56762695 294.44335938 C-327.56835709 293.31077698 -327.56908722 292.17819458 -327.56983948 291.0112915 C-327.5663714 287.28828115 -327.52754403 283.56654032 -327.48828125 279.84375 C-327.47895043 277.25444217 -327.47183559 274.66512549 -327.46684265 272.07580566 C-327.44973858 265.97012105 -327.41038075 259.86495605 -327.3600952 253.75946665 C-327.30406356 246.80421751 -327.27668071 239.84894595 -327.25161803 232.89352703 C-327.1994599 218.59544292 -327.11160439 204.29773754 -327 190 C-324.02051583 191.17096999 -321.25141704 192.32656903 -318.5390625 194.03125 C-317.9104834 194.4245752 -317.2819043 194.81790039 -316.63427734 195.22314453 C-315.63968506 195.85518799 -315.63968506 195.85518799 -314.625 196.5 C-313.5743335 197.16104736 -313.5743335 197.16104736 -312.50244141 197.83544922 C-307.73656407 200.85037769 -303.04728686 203.96776725 -298.375 207.125 C-266.81761778 228.30447876 -230.61400054 238.80701982 -192.6328125 231.80078125 C-170.23210383 227.2104721 -149.42988863 217.91376297 -132 203 C-130.99710938 202.15953125 -129.99421875 201.3190625 -128.9609375 200.453125 C-115.83631562 189.15483156 -106.48216137 175.17441972 -97.52539062 160.49462891 C-96.01424207 158.02329153 -94.48667049 155.56296071 -92.953125 153.10546875 C-80.13830921 132.55067318 -67.6319898 111.80963268 -55.2956543 90.96502686 C-49.37691863 80.9655324 -43.38291034 71.01563789 -37.32827759 61.09793091 C-31.84179462 52.10510332 -26.48892232 43.04047286 -21.1875 33.9375 C-3.40083201 3.40083201 -3.40083201 3.40083201 0 0 Z " fill="#EB4E23" transform="translate(580,212)"/>
<path d="M0 0 C-0.64561312 17.90927398 -1.8119858 35.77076686 -3.0877533 53.64374447 C-3.36434578 57.52742148 -3.63750652 61.41134014 -3.91113281 65.29522705 C-4.36966798 71.79690126 -4.83050621 78.29840871 -5.29296875 84.79980469 C-5.82547458 92.2860512 -6.35504584 99.77250059 -6.88290787 107.25907588 C-7.44948331 115.29469502 -8.01776919 123.33019243 -8.58677673 131.36563969 C-8.74900356 133.65779592 -8.91096176 135.94997102 -9.07287598 138.24214935 C-9.32788996 141.85069656 -9.58409034 145.45915777 -9.84117126 149.06755829 C-9.97885514 151.00344348 -10.11548714 152.93940339 -10.2520752 154.87536621 C-10.75576532 161.92521781 -11.32814981 168.96412502 -12 176 C-14.66292261 174.695231 -17.02867336 173.35241917 -19.3984375 171.56640625 C-20.35423706 170.84868042 -20.35423706 170.84868042 -21.3293457 170.11645508 C-22.00441162 169.6036499 -22.67947754 169.09084473 -23.375 168.5625 C-24.08035889 168.02971436 -24.78571777 167.49692871 -25.51245117 166.94799805 C-52.50851534 146.49148466 -52.50851534 146.49148466 -58 141 C-58.11759809 138.46573205 -58.16219676 135.96864606 -58.15234375 133.43359375 C-58.15040512 132.638358 -58.14846649 131.84312225 -58.14646912 131.02378845 C-58.06336024 121.38067531 -57.43098173 111.77170458 -56.77319336 102.15356445 C-56.55925848 99.0149439 -56.35620492 95.87574316 -56.15429688 92.73632812 C-56.02146278 90.73172902 -55.88802268 88.72716997 -55.75390625 86.72265625 C-55.6934462 85.78841324 -55.63298615 84.85417023 -55.57069397 83.89161682 C-55.48071388 82.5976725 -55.48071388 82.5976725 -55.38891602 81.27758789 C-55.33784195 80.52135635 -55.28676788 79.76512482 -55.23414612 78.98597717 C-55 77 -55 77 -54 74 C-59.15652655 76.02360326 -64.31190093 78.05010723 -69.46630859 80.07910156 C-71.21340417 80.76638875 -72.96079151 81.45293483 -74.70849609 82.13867188 C-84.29019145 85.8987864 -93.82917777 89.70752967 -103.24560547 93.86669922 C-109.42038076 96.40732206 -115.03932447 97.00994476 -121.375 94.5 C-125.62203708 92.44726541 -128.66904291 89.76052065 -132.08203125 86.546875 C-138.26446989 81.15069027 -145.06838041 76.49800001 -151.70361328 71.67871094 C-155.16031326 69.15178461 -158.5828566 66.58006386 -162 64 C-158.49998065 60.99677209 -154.58562084 59.48774124 -150.328125 57.875 C-149.5556694 57.57633026 -148.78321381 57.27766052 -147.98735046 56.96994019 C-146.30175939 56.31887708 -144.61507974 55.67062697 -142.92745972 55.02484131 C-138.26564861 53.24045719 -133.61211619 51.43465328 -128.95703125 49.6328125 C-127.48629906 49.06459274 -127.48629906 49.06459274 -125.9858551 48.4848938 C-115.27815785 44.34433359 -104.60765264 40.11114663 -93.9375 35.875 C-73.09347587 27.60673666 -52.22603822 19.398856 -31.35131836 11.20849609 C-30.20154007 10.75726883 -29.05176178 10.30604156 -27.86714172 9.84114075 C-25.72671483 9.00120751 -23.58617062 8.16157315 -21.44548035 7.3223114 C-20.47814468 6.94274796 -19.51080902 6.56318451 -18.51416016 6.17211914 C-17.13420868 5.63205734 -17.13420868 5.63205734 -15.72637939 5.08108521 C-13.86804539 4.34420412 -12.01528087 3.59315747 -10.16766357 2.82980347 C-9.27621643 2.46243073 -8.38476929 2.09505798 -7.46630859 1.71655273 C-6.28251114 1.22106178 -6.28251114 1.22106178 -5.07479858 0.71556091 C-3 0 -3 0 0 0 Z " fill="#2354A0" transform="translate(683,1)"/>
<path d="M0 0 C2.82619863 2.82619863 3.81363347 6.26200296 5.1875 9.9375 C5.47302734 10.66646484 5.75855469 11.39542969 6.05273438 12.14648438 C8.12105341 17.63683977 8.12105341 17.63683977 7 21 C5.99580363 18.5433053 4.99649499 16.08481647 4 13.625 C3.71382812 12.92632812 3.42765625 12.22765625 3.1328125 11.5078125 C1 6.2265625 1 6.2265625 1 4 C-2.21693815 6.96418818 -4.33784972 9.96277592 -6.51171875 13.75 C-6.83690994 14.31146729 -7.16210114 14.87293457 -7.49714661 15.45141602 C-8.19862747 16.66353057 -8.89740988 17.87721004 -9.59375 19.09228516 C-11.47981399 22.38195123 -13.38707241 25.65929689 -15.29296875 28.9375 C-15.68447113 29.61184082 -16.07597351 30.28618164 -16.4793396 30.98095703 C-20.39486378 37.71015035 -24.43762136 44.35880776 -28.5 51 C-34.26888403 60.44195688 -39.92699203 69.94117136 -45.5 79.5 C-53.82626242 93.7738321 -62.36966896 107.90830339 -71 122 C-71.67949707 123.11004395 -72.35899414 124.22008789 -73.05908203 125.36376953 C-77.03818735 131.85900371 -81.03093795 138.34564443 -85.03710938 144.82421875 C-86.35790027 146.96114013 -87.67687899 149.09918253 -88.99414062 151.23828125 C-109.06476047 183.81610776 -129.5182998 209.74764355 -165 226 C-165.63365479 226.29060303 -166.26730957 226.58120605 -166.92016602 226.88061523 C-170.46613429 228.45933471 -173.09368259 229.35511976 -177 229 C-174.34110886 227.22740591 -171.79543935 226.01773177 -168.86010742 224.79345703 C-154.91171554 218.96264006 -142.33960561 212.10320002 -131 202 C-130.17242187 201.30390625 -129.34484375 200.6078125 -128.4921875 199.890625 C-114.62843246 187.98257208 -105.50165218 173.42583487 -96 158 C-94.93999218 156.29873707 -93.87883435 154.59819003 -92.81640625 152.8984375 C-80.04019961 132.41775477 -67.58953788 111.73790202 -55.2956543 90.96502686 C-49.37691863 80.9655324 -43.38291034 71.01563789 -37.32827759 61.09793091 C-31.84179462 52.10510332 -26.48892232 43.04047286 -21.1875 33.9375 C-3.40083201 3.40083201 -3.40083201 3.40083201 0 0 Z " fill="#4E3D35" transform="translate(580,212)"/>
<path d="M0 0 C7.28467341 0.37235152 13.42739116 1.86872691 20.1875 4.5625 C21.09878662 4.91965088 22.01007324 5.27680176 22.94897461 5.64477539 C40.21413765 12.56328452 54.45547919 22.19427124 68 35 C68.74894531 35.69609375 69.49789062 36.3921875 70.26953125 37.109375 C79.50717201 45.97492165 86.75258588 56.13206108 93.2109375 67.125 C94.96195732 69.93886591 96.87836011 72.45777071 99 75 C99.57500244 74.00818726 99.57500244 74.00818726 100.16162109 72.99633789 C101.89399149 70.01520186 103.63437441 67.03882287 105.375 64.0625 C105.97828125 63.02158203 106.5815625 61.98066406 107.203125 60.90820312 C108.07324219 59.42416992 108.07324219 59.42416992 108.9609375 57.91015625 C109.49509277 56.99371338 110.02924805 56.07727051 110.57958984 55.13305664 C112 53 112 53 114 52 C112.55575335 57.03156896 110.3515066 61.08947462 107.625 65.5 C107.23828125 66.13808594 106.8515625 66.77617187 106.453125 67.43359375 C104.06300543 71.3556356 101.57193547 75.19494478 99 79 C96.74244122 76.89501205 95.1640885 74.82203535 93.6171875 72.15625 C93.17681152 71.40988281 92.73643555 70.66351563 92.28271484 69.89453125 C91.81816895 69.10433594 91.35362305 68.31414062 90.875 67.5 C86.42888525 60.08931784 81.75342227 53.46871261 76 47 C75.29488281 46.175 74.58976562 45.35 73.86328125 44.5 C55.24356388 23.10571074 33.02838674 10.98230066 6.12792969 2.74267578 C3.97492388 1.9912481 2.01483906 1.06335557 0 0 Z " fill="#4C3E36" transform="translate(389,174)"/>
<path d="M0 0 C8.63720235 3.57335584 13.57510772 14.27513107 18.140625 22.01953125 C19.91848484 24.869336 21.84847015 27.42482821 24 30 C24.38333496 29.3387915 24.76666992 28.67758301 25.16162109 27.99633789 C26.89399149 25.01520186 28.63437441 22.03882287 30.375 19.0625 C30.97828125 18.02158203 31.5815625 16.98066406 32.203125 15.90820312 C32.78320312 14.91884766 33.36328125 13.92949219 33.9609375 12.91015625 C34.49509277 11.99371338 35.02924805 11.07727051 35.57958984 10.13305664 C37 8 37 8 39 7 C37.55575335 12.03156896 35.3515066 16.08947462 32.625 20.5 C32.23828125 21.13808594 31.8515625 21.77617187 31.453125 22.43359375 C29.06300543 26.3556356 26.57193547 30.19494478 24 34 C21.74244122 31.89501205 20.1640885 29.82203535 18.6171875 27.15625 C18.17616699 26.40923828 17.73514648 25.66222656 17.28076172 24.89257812 C16.81686035 24.10302734 16.35295898 23.31347656 15.875 22.5 C11.90543071 15.85167007 7.75967427 9.82610129 2.6796875 3.96875 C1 2 1 2 0 0 Z " fill="#453831" transform="translate(464,219)"/>
</svg>
