<svg xmlns="http://www.w3.org/2000/svg" viewBox="0 0 523.36 337.48"><defs><style>.cls-1{fill:#f05023;}.cls-1,.cls-2,.cls-3{stroke:#231f20;stroke-miterlimit:10;stroke-width:0.25px;}.cls-2,.cls-3{fill:#2656a7;}.cls-3{font-size:64.07px;font-family:Poppins-SemiBold, Poppins;font-weight:600;}.cls-4{fill:#7c287d;letter-spacing:0em;}.cls-5{fill:#f15a29;}</style></defs><g id="Layer_2" data-name="Layer 2"><g id="Layer_1-2" data-name="Layer 1"><path class="cls-1" d="M277,83.64c-8.16-15.3-19.94-24.33-36.59-26.73C215.69,53.36,191.12,72.76,189,97.62c-.2,2.44-.26,4.89-.26,7.34q0,57.8,0,115.59v7.66H155.2c-.1-1.54-.26-2.81-.26-4.07,0-40.66-.14-81.31,0-122A79.85,79.85,0,0,1,292.91,47.89c2.43,2.55,2.86,4.35.9,7.46C288.1,64.45,282.78,73.8,277,83.64Z"/><path class="cls-1" d="M307.84,70.86a78.76,78.76,0,0,1,6.64,35.9c-2.4,55-60.58,91.25-111.15,69.33-3.39-1.47-4.5-3.3-4.44-6.91.22-12,.08-24,.08-35.29,6.62,4,12.81,9,19.87,11.72a44.61,44.61,0,0,0,54.46-17.79c10.84-17,20.94-34.55,31.37-51.85C305.56,74.5,306.48,73,307.84,70.86Z"/><path class="cls-2" d="M341.91.19c-1.4,19.77-2.71,38.29-4.12,58.15-5.3-4.1-10-7.6-14.52-11.39-.65-.55-.25-2.47-.18-3.74.36-6,.78-12,1.24-19-6,2.35-11.4,4.28-16.64,6.63-3.08,1.38-5.38,1.15-8-1.11-3.28-2.88-6.94-5.33-11.12-8.49Z"/><text class="cls-3" transform="translate(0.13 299.36) scale(1.03 1)">POCKET<tspan class="cls-4" x="252" y="0"> </tspan><tspan class="cls-5" x="267.25" y="0">PARCEL</tspan></text></g></g></svg>